<?xml version="1.0" encoding="UTF-8"?>
<!DOCTYPE svg PUBLIC "-//W3C//DTD SVG 1.1//EN" "http://www.w3.org/Graphics/SVG/1.1/DTD/svg11.dtd">
<!-- Creator: CorelDRAW -->
<svg xmlns="http://www.w3.org/2000/svg" xml:space="preserve" width="2000px" height="2000px" version="1.1" style="shape-rendering:geometricPrecision; text-rendering:geometricPrecision; image-rendering:optimizeQuality; fill-rule:evenodd; clip-rule:evenodd"
viewBox="0 0 2000 2000"
 xmlns:xlink="http://www.w3.org/1999/xlink"
 xmlns:xodm="http://www.corel.com/coreldraw/odm/2003">
 <defs>
  <style type="text/css">
   <![CDATA[
    .fil2 {fill:#142445}
    .fil1 {fill:#838180}
    .fil0 {fill:#D82216}
   ]]>
  </style>
 </defs>
 <g id="Layer_x0020_1">
  <metadata id="CorelCorpID_0Corel-Layer"/>
  <path class="fil0" d="M913.72 845.25c0,8.65 -0.04,16.71 1.23,25.34 0.4,2.68 0.79,5.73 1.28,8.18 0.55,2.75 1.21,5.36 1.76,7.71 2.19,9.31 5.4,19.36 9.68,27.81 1.09,2.14 1.84,4.03 2.91,6.19 1.1,2.21 2.16,3.98 3.41,6.06 3.44,5.73 6.87,11.72 11.12,16.91 2.81,3.43 5.48,7.18 8.55,10.37l6.81 7.03c2.35,2.85 9.58,8.34 12.69,10.97 7.94,6.7 19.75,13.12 29.13,17.82 4.22,2.11 8.57,3.82 12.98,5.58 11.45,4.58 34.84,9.1 47.33,9.1 13.46,0 20.01,-0.35 32.97,-2.34 2.71,-0.41 4.55,-0.99 7.08,-1.29l12.87 -3.51c1.21,-0.4 2.01,-0.54 3.14,-0.86 1.08,-0.31 2.11,-0.72 3.23,-1.15l5.92 -2.44c7.58,-3.05 14.74,-7.21 21.72,-11.41 3.99,-2.4 17.1,-11.3 19,-14.13 -1.02,-0.42 -15.2,1.46 -18.2,1.46 -15.55,0 -25.57,-0.48 -39.7,-6.89l-3.15 -1.59c-1.98,-0.83 -3.15,-1.38 -4.92,-2.36 -6.16,-3.41 -12.86,-6.58 -18.2,-11.29 -1.4,-1.23 -2.71,-2.02 -4.01,-3.26 -0.87,-0.83 -1.12,-0.93 -1.99,-1.66 -4.72,-3.96 -7.64,-7.58 -11.65,-12.01l-0.67 -0.78c-3.52,-4.15 -6.33,-8.77 -9.11,-13.46 -3.61,-6.08 -6.35,-12.89 -8.92,-19.45 -3.61,-9.24 -5.85,-18.76 -7.77,-29.02 -1.37,-7.34 -2.4,-15.13 -2.76,-22.74 -0.11,-2.23 0.29,-4.36 -0.25,-6.47 -0.23,-0.88 -0.47,-0.8 -0.47,-1.89l0 -32.03c0,-6.91 0.72,-14.24 0.71,-20.03 0,-6.39 1.29,-19 1.46,-26.21 0.04,-1.67 0.44,-5.16 0.64,-6.64l0.83 -16.28c0.08,-1.61 0.33,-1.52 0.37,-3.27l0.72 -16.39c0.08,-1.6 0.32,-1.52 0.37,-3.27 0.15,-4.93 0.36,-9.03 0.36,-13.84 -6.88,0 -21.26,4.95 -27.44,7.14 -4.17,1.49 -8.12,2.98 -12.12,4.99 -3.85,1.93 -8.05,3.83 -11.41,6.07 -3.27,2.19 -7.33,4.27 -10.55,6.55 -5.73,4.07 -11.75,8.47 -16.85,13.37l-6.73 6.38c-3.22,3.49 -11.54,12.76 -13.85,16.35l-14.51 24.45c-2.71,5.44 -4.65,11.19 -6.87,16.79 -2.22,5.59 -3.92,12.63 -5.11,18.56 -0.12,0.64 -0.32,1.33 -0.43,1.75 -0.76,2.96 -2.63,21.44 -2.63,25.03z"/>
  <path class="fil1" d="M1109.92 730.22c0,15.77 0,31.55 0,47.32 0,29.35 0.52,58.9 0.36,88.46 -0.01,2.55 0.36,3.63 0.39,5.81 0.06,5.08 -0.6,24.92 0.54,28.94 1.17,4.11 9.95,3.47 14.73,3.47 10.13,0 81.41,0.44 85.22,-0.33 1.69,-0.34 1.56,-0.54 2.28,-2.08 4.9,-10.51 8.96,-37.37 8.96,-49.65 0,-16.09 -1.72,-32.54 -6.87,-47.73 -1.46,-4.31 -2.36,-7.8 -4.17,-11.84 -0.88,-1.96 -1.6,-3.78 -2.42,-5.59 -4.94,-11 -7.82,-15.71 -14.42,-25.62 -6.89,-10.35 -13.74,-17.02 -22.43,-25.62 -1.36,-1.34 -2.93,-2.36 -4.38,-3.63 -8.96,-7.93 -18,-13.84 -28.66,-19.39 -6.33,-3.29 -9.78,-4.71 -16.64,-7.39 -2.48,-0.96 -10.17,-3.89 -12.49,-3.89l0 28.76z"/>
  <path class="fil2" d="M199.52 1259.86c-10.53,0 -22.66,-1.09 -32.19,-4.94 -6.64,-2.67 -10.04,-4.41 -15.22,-9.54 -2.44,-2.41 -0.75,0.16 -4.08,-4.29 -8.79,-11.78 -11.07,-20.32 -13.29,-36.21 -2.05,-14.74 -1.39,-33.13 1.07,-47.68 0.41,-2.46 1.02,-4.64 1.55,-7.18 1.92,-9.23 7.12,-19.72 14.19,-26.22 2.9,-2.67 4.78,-4.45 8.37,-6.56 0.57,-0.33 0.87,-0.45 1.42,-0.75 0.5,-0.27 0.91,-0.52 1.41,-0.78 16.3,-8.61 48.04,-8.98 65.37,-2.03 4.38,1.76 10.01,4.35 13.35,7.77 2.72,2.78 2.31,1.32 6.51,6.59 1.29,1.62 2.41,2.95 3.47,4.9 7.01,12.96 7.55,18.8 9.75,33.2l0.93 20.55c0,11.81 -2.31,32.28 -7.52,43.08 -8.26,17.12 -20.03,25.48 -39.38,28.69 -4.37,0.73 -10.68,1.4 -15.71,1.4zm1453.52 -483.78c0.8,0.6 1.05,1.61 1.4,2.6 0.41,1.14 0.73,2.25 1.1,3.27l15.83 44.96c1.48,4.35 3.01,8.25 4.46,12.65l13.61 38.81c-2.25,-1.08 -63.37,-0.36 -71.71,-0.36 0.15,-1.83 5.37,-16.09 6.41,-19.07 0.77,-2.22 1.52,-4.37 2.28,-6.46l8.92 -25.3c2.86,-8.61 6.13,-16.89 8.91,-25.3 0.7,-2.11 1.3,-4.17 2.13,-6.25 0.87,-2.19 1.46,-4.35 2.29,-6.44 0.69,-1.73 4.24,-11.64 4.37,-13.11zm-117.22 187.47l50.97 0c1.32,0 1.06,-1.05 1.42,-2.21 2.75,-8.92 7.98,-22.09 11.09,-31.5 0.78,-2.38 3.82,-9.9 3.87,-11.79l100.46 0c0.15,1.79 1.29,4.19 1.82,5.82l5.97 16.98c1.73,5.25 6.9,18.54 7.87,22.7l52.05 0c-0.24,-1.05 -0.75,-2.07 -1.14,-3.23l-13.56 -38.49c-5.34,-16.18 -11.81,-32.87 -17.19,-49.05l-9.76 -27.74c-4.76,-12.31 -10.09,-28.9 -14.82,-41.97l-12.28 -35.04c-1.58,-4.74 -3.31,-9.16 -4.92,-14.01 -0.83,-2.54 -1.61,-4.51 -2.45,-7.02 -0.68,-2.02 -2.14,-4.76 -2.14,-7.32l-78.99 0c-0.16,1.86 -1.59,5.09 -2.25,6.86l-8.63 24.49c-0.44,1.3 -0.74,2.21 -1.24,3.49 -0.94,2.38 -1.54,4.75 -2.44,7.02l-39.32 111.76c-2.97,8.11 -6.95,20.78 -9.83,28.03 -2.68,6.76 -7.35,21.01 -9.87,27.98 -0.81,2.25 -4.65,12.67 -4.69,14.24zm-172.54 0l156.16 0 0 -41.13c-0.44,0.25 -0.39,0.36 -1.09,0.36l-103.38 0 0 -183.1 -51.69 0 0 223.87zm-502.34 209.68l0 -60.8 21.82 0.02c6.27,0.53 8.88,0.05 13.24,0.27 1.16,0.06 1.15,0.09 2.28,-0.08 3.96,-0.57 15.04,-0.31 18.55,0.06 4.91,0.53 10.9,0.02 16.92,3 12.18,6.06 14.68,16.87 13.81,30.2 -0.44,6.9 -2.59,12.83 -5.59,17.36 -7.28,10.96 -25.04,9.6 -35.9,9.6 -6.91,0 -41.37,-0.51 -45.13,0.37zm315.23 61.88l-1.15 7.21c-0.48,1.75 -1.83,5.22 -2.77,6.7 -5.54,8.74 -13.71,11.82 -23.58,13.55 -11.49,2.02 -26.65,1.76 -37.58,-0.96 -6.76,-1.68 -10.74,-3.66 -15.73,-7.2 -9.31,-6.61 -15.29,-20.8 -15.29,-32.04l-50.23 0c0,10.04 3.68,27.24 8.67,35.38 0.75,1.22 1.26,2.32 1.88,3.57 1.19,2.42 2.83,4.4 4.26,6.67 1.42,2.27 3.4,4.11 5.05,6.22 3.94,5.04 9.65,9.31 15.1,12.57 2.34,1.39 4.45,2.62 7.02,3.91 7.85,3.92 16.19,6.59 24.72,8.4 12.9,2.73 25.75,3 38.86,3 5.18,0 14.1,-0.38 19.28,-1.11 11.24,-1.6 22.55,-3.49 32.79,-7.98 8.63,-3.79 18.1,-9.14 24.27,-16.5 2.39,-2.85 4.59,-5.61 6.41,-8.88 3.24,-5.84 5.5,-11.3 7.24,-18.24 3.45,-13.79 3.46,-32.23 -1.63,-45.11 -3.12,-7.87 -8.09,-16.78 -14.98,-22.16 -11.45,-8.94 -20.53,-12.8 -35.74,-16.31 -12.97,-3 -37.5,-4.85 -52.45,-6.88 -4.17,-0.57 -8.57,-0.9 -12.71,-1.85 -12.8,-2.95 -21.25,-10.15 -21.25,-24.61 0,-4.22 1.47,-8.14 3.19,-11.73 0.35,-0.73 0.3,-0.79 0.74,-1.45 0.2,-0.28 0.58,-0.71 0.82,-1 1.66,-1.95 3.37,-3.96 5.51,-5.41 1.02,-0.7 1.5,-1.14 2.58,-1.79 3.91,-2.34 8.06,-3.32 12.48,-4.63 6.98,-2.05 18.69,-2.01 26.02,-0.95l8.35 1.48c2.73,0.72 4.98,1.24 7.41,2.42 8.52,4.11 15.84,10.94 18.85,20.09 0.91,2.77 2.14,6.52 2.14,9.52l50.96 0 -1.36 -8.84c-0.57,-3.35 -1.07,-5.35 -1.96,-8.23 -2.65,-8.57 -6.25,-16.73 -11.81,-23.86 -0.92,-1.18 -1.53,-1.69 -2.34,-2.75 -4.41,-5.76 -10.85,-10.25 -16.96,-13.99 -12.07,-7.4 -23.82,-10.44 -38.06,-12.91 -7.42,-1.28 -21.08,-1.5 -29.07,-1.5 -20.7,0 -51,4.98 -66.89,20.11 -3.27,3.12 -6.38,6.14 -9.27,9.66 -4.33,5.27 -7.37,11.49 -9.75,17.92 -2.17,5.88 -4.38,18.26 -3.43,24.54l1.22 11.16c1.29,9.81 5.6,18.44 11.52,25.97l2.79 3.4c2.92,3.19 6.76,5.81 10.32,8.25l6.05 3.41c9.24,5.04 20.9,7.27 31.62,8.79 13.53,1.92 44.66,5.08 55.02,7.59 13.45,3.25 22.85,11.87 22.85,27.38zm550.76 -98.65c0,7.5 1.51,16.25 3.41,22.07 2.65,8.13 8.21,18.37 14.79,23.43l7.21 5.54c2.47,1.65 5.38,3.44 8.13,4.61l9.46 3.64c11.72,3.91 25.47,5.25 37.81,6.6l28.33 3.7c3.77,0.54 7.21,0.96 10.75,1.99 16.27,4.72 24.76,16.76 20.55,33.92 -0.8,3.28 -2.03,6.18 -3.98,8.75 -5.68,7.49 -11.79,9.43 -20.56,11.48 -6.69,1.56 -21.45,2.26 -29.11,1.16 -10.51,-1.5 -21.4,-3.72 -28.51,-11.17l-2.5 -2.6c-1.4,-1.5 -4.25,-5.7 -5.19,-7.54 -2.33,-4.59 -3.72,-9.52 -4.77,-14.53 -0.23,-1.15 0.29,-5.14 -1.41,-5.14l-49.14 0c0,12.34 4.43,27.04 8.61,35.43l6.16 10.22c0.83,1.19 1.68,2.11 2.59,3.24 1.81,2.25 3.09,3.78 5.12,5.8 5.64,5.64 12.36,10.05 19.5,13.63 7.84,3.92 16.19,6.59 24.72,8.4 12.9,2.73 25.75,3 38.86,3 4.69,0 11.56,-0.75 14.56,-0.74 7.79,0.04 18.45,-2.67 26.12,-4.45l7.78 -2.41c5.65,-2.04 12.22,-5.32 17.12,-8.73 2.04,-1.41 3.8,-2.95 5.72,-4.47 1.93,-1.52 3.69,-3.14 5.15,-5.05 3.38,-4.42 5.75,-7.25 8.38,-12.36 2.41,-4.7 3.98,-9.82 5.3,-15.09 4.23,-16.85 3.13,-39.1 -6.33,-54.16 -1.88,-3 -3.95,-5.99 -6.35,-8.58 -4.53,-4.89 -10.8,-9.36 -17.02,-12.46 -3.17,-1.58 -6.92,-3.23 -10.51,-4.42 -3.74,-1.24 -7.58,-2.22 -11.69,-3.23 -3.95,-0.97 -8.38,-1.37 -12.49,-2.07 -4.35,-0.74 -8.82,-1.13 -13.3,-1.63 -8.69,-0.96 -17.73,-2.22 -26.6,-3.24 -8.88,-1.03 -17.57,-1.83 -23.77,-5.72 -7.38,-4.63 -10.84,-12.03 -10.84,-21.19 0,-11.19 8.45,-20.1 18.51,-23.71 2.18,-0.78 4.26,-1.25 6.75,-1.98 1.99,-0.59 5.01,-0.78 7.28,-1.1 13.68,-1.93 33.24,0.38 43.44,9.77l1.7 1.58c0.05,0.06 0.13,0.13 0.18,0.19 3.58,3.7 6.53,7.93 8.18,12.93 0.89,2.68 2.05,6.3 2.05,9.24l50.96 0c-0.31,-1.33 -0.44,-3.25 -0.61,-4.48 -1.44,-9.93 -4.34,-18.19 -8.56,-27.13 -2.58,-5.46 -6.68,-10.38 -10.76,-14.72l-5.3 -4.89c-1.06,-0.9 -1.96,-1.52 -3.05,-2.41 -1.92,-1.57 -3.94,-2.72 -6.14,-4.04 -9.1,-5.45 -18.77,-9.19 -29.43,-11.34 -2.85,-0.58 -6.01,-1.18 -8.65,-1.56 -3.15,-0.45 -6.04,-0.49 -9.35,-0.84 -17.42,-1.82 -39.35,-0.45 -55.02,3.7 -10.44,2.76 -18.6,6.46 -27.38,12.3 -5.86,3.89 -10.33,9.33 -14.77,14.72 -3.43,4.16 -6.16,9.55 -7.9,14.67 -0.3,0.89 -0.38,0.88 -0.68,1.86 -2.12,6.79 -3.51,13.88 -3.51,21.61zm-144.88 -27.67c0.59,2.52 1.26,3.93 2.05,6.33l29.21 82.91c0.82,2.19 1.5,4.3 2.28,6.45 0.41,1.15 2.05,5.55 2.14,6.6l-71.72 0c0.13,-1.54 17.29,-49.94 17.84,-51.32 0.79,-1.98 1.48,-4.24 2.14,-6.24l13.56 -38.49c0.36,-1.07 0.7,-2.06 1.15,-3.22 0.57,-1.45 0.52,-2.06 1.35,-3.02zm-321.42 187.47l164.53 0c2.87,0 11.86,0.25 12.05,0.12 0.68,-0.5 0.33,-12.25 0.33,-13.22 0,-9.22 0,-18.45 0,-27.67l-125.59 0 0 -54.24 114.67 0 0 -38.22 -114.67 0 0 -49.87c0.39,0.01 1.06,0.11 1.26,0.12 1.47,0.04 -0.32,-0.12 1.29,-0.12l120.85 0c1.4,0 0.14,-0.11 1.1,0.37l0 -41.14 -175.82 0 0 223.87zm-663.97 0.37c1.89,-0.91 79.45,-0.37 88.46,-0.37l88.45 0 0 -40.77 -125.58 0 0 -54.24 114.3 0c0,-6.21 -0.53,-34.38 0.36,-38.22l-114.66 0 0 -49.87c2.62,0.61 121.7,-0.97 124.49,0.37l0 -41.14 -175.82 0 0 224.24zm-29.85 -224.24l-52.05 0c-0.04,1.65 -1.05,4.17 -1.62,5.67 -4.27,11.33 -9.52,27.89 -13.54,39.6 -2.65,7.72 -5.07,14.87 -7.64,22.58 -2.6,7.78 -5.21,15.24 -7.73,22.84l-11.56 33.94c-4.42,13.28 -9.31,26.65 -12.88,40.27 -0.51,1.97 -1.07,3.89 -1.66,5.98l-3.8 11.5 -8.29 -29.21c-8.76,-27.96 -19.16,-56.94 -28.52,-85.05l-22.89 -68.12 -53.15 0c0.14,1.63 4.5,13.68 5.15,15.61 1.74,5.23 3.47,10.42 5.27,15.84l26.49 79.08c0.49,1.48 0.88,2.43 1.32,3.77l14.6 43.64c6.89,20.68 14.63,42.54 21.21,63.25 1.27,3.99 0.48,2.93 4.22,2.69 5.38,-0.35 28.41,-0.01 34.59,-0.01l31.67 0c7.21,-0.02 4.91,3.03 9.33,-10.33l68.89 -205.57c0.84,-2.53 2,-5.45 2.59,-7.97zm411.7 109.57l0 0.37 0.43 -0.31 -0.43 -0.06 7.34 -6.49c0.92,-1.16 1.14,-1.45 2.22,-2.51 2.89,-2.85 5.74,-7.76 7.55,-11.38 2.05,-4.09 3.87,-8.95 4.74,-14.19 1.17,-7.04 0.86,-6.93 1.35,-12.85 0.1,-1.2 -0.29,-2.45 -0.27,-4.26 0.1,-11.52 -5.05,-25.73 -12.48,-34.48 -20.81,-24.47 -49.26,-23.41 -80.34,-23.41l-94.28 0c-6.11,-0.01 -4.73,-1.08 -4.73,4l0 198.03c0,5.61 0.47,13.6 -0.03,18.92 -0.41,4.4 -1.83,2.92 14.59,2.92l28.39 0c2.02,0 6.47,-0.08 8.38,0.37l0 -86.64c12.47,0 42.68,-0.65 53.57,0.66 14.59,1.75 26.67,10.42 28.71,25.89 0.88,6.63 0.71,2.98 0.71,10.22 0,11.77 -0.08,19.95 1.06,31.7 0.45,4.69 1.65,11.56 2.84,16.09 0.68,2.6 1.26,1.42 1.4,1.77 0.02,0.07 0.16,0.04 0.2,0.04l5.06 -0.1c11.02,0.02 35.48,-0.43 43.42,0.35 3.42,0.34 1.49,-1.97 0.41,-8.51 -0.65,-3.93 -1.12,-7.03 -1.72,-11.02 -3.58,-23.95 5.79,-54.62 -15.28,-72.44 -10.8,-9.14 -22.91,-10.77 -25.38,-12.49 2.5,-0.2 9.48,-2.93 12.28,-4.1 1.99,-0.82 3.38,-1.82 5.13,-2.88l5.16 -3.21zm886.02 -259.18c-1.52,-0.63 0.15,0 -1.46,0l-69.52 0c-0.89,0 -1.46,-0.8 -1.46,0.73l0 40.04 52.78 0c13.55,0 28.84,-1.84 39.79,-6.44 13.81,-5.81 22.09,-15.51 26.7,-29.36 2.02,-6.08 4.15,-17.05 4.5,-23.53 0.17,-3.28 -0.02,-6.23 0.31,-9.16 0.29,-2.59 0.05,-6.65 0.05,-9.41l0 -145.97 -51.69 0 0 183.1zm-348.36 373.48c0.35,-4.26 15.28,-41.89 15.28,-45.5l100.47 0c0.88,3.76 2.64,7.68 3.87,11.42l9.97 28.26c0.73,1.85 1.32,3.71 1.82,5.82l52.05 0 -59.07 -168.08c-0.87,-2.46 -1.68,-4.66 -2.45,-7.01 -0.72,-2.22 -1.55,-4.77 -2.44,-7.02 -1.85,-4.67 -3.1,-9.32 -4.95,-13.99l-8.88 -25.33c-0.7,-1.98 -0.4,-2.44 -1.57,-2.44l-77.9 0c-0.03,1.49 -3.12,10.18 -4,12.38l-20.17 57.36c-0.47,1.58 -0.91,2.41 -1.44,4.02 -4.28,12.94 -9.89,28.08 -14.52,41.18 -1,2.8 -1.82,5.5 -2.77,8.15l-26.07 74.03c-0.96,2.83 -1.92,5.28 -2.88,8.05l-5.75 16.48c-1.18,3.29 -1.55,2.22 6.99,2.22 14.8,0 29.6,0 44.41,0zm-1436.41 -113.21c0,15.34 1.72,32.52 6.5,46.65 1.58,4.65 3.83,11.16 5.99,15.48 4.47,8.93 13.68,22.86 21.21,28.67l9.87 7.96c5.39,3.98 14.71,8.74 21.01,11.39 18.02,7.57 44.84,10.1 64.66,8.54 10.18,-0.79 7.84,-0.2 18.95,-2.16l11.61 -2.59c3.87,-1.08 7.12,-1.97 10.77,-3.43 1.74,-0.69 3.12,-1.36 4.76,-2.15l11.66 -6.18c1,-0.56 1.45,-0.74 2.3,-1.34 1.37,-0.97 2.56,-1.97 4,-2.92 4.31,-2.85 6.15,-4.65 9.73,-8.1 0.85,-0.82 1.16,-0.9 2.01,-1.63 1.3,-1.14 2.01,-2.34 3.28,-3.64 3.1,-3.18 6.63,-8.87 9.16,-12.31 3.16,-4.31 7.35,-13.45 9.52,-18.88 3.67,-9.17 7.06,-23.96 8.11,-34.48 1.35,-13.61 1.07,-33.89 -1.99,-47.05 -2.8,-12 -5.77,-23.38 -11.78,-33.73 -3.63,-6.25 -4.89,-8.8 -9.84,-15.27 -2.03,-2.66 -4.23,-5.14 -6.64,-7.55 -7.09,-7.09 -13.13,-11.86 -22,-16.59 -9.81,-5.24 -16.92,-8.21 -27.94,-11.01 -1.2,-0.3 -1.86,-0.36 -3.07,-0.57l-8.89 -1.67c-12.1,-1.87 -31.15,-2.16 -43.31,-0.56l-12.55 1.65c-7.7,1.33 -15.82,3.78 -22.36,6.4 -1.57,0.63 -3.21,1.35 -4.8,2.11 -8.23,3.95 -10.58,5.71 -17.78,10.61 -5.33,3.63 -4.5,3.79 -7.99,6.57 -1.25,1 -2.48,2.42 -3.68,3.6 -12.32,12.25 -20.6,29.57 -25.35,46 -3.17,10.95 -5.13,26.48 -5.13,38.18z"/>
 </g>
</svg>
